<?xml version="1.0" standalone="no"?>
<!DOCTYPE svg PUBLIC "-//W3C//DTD SVG 20010904//EN"
 "http://www.w3.org/TR/2001/REC-SVG-20010904/DTD/svg10.dtd">
<svg version="1.0" xmlns="http://www.w3.org/2000/svg"
 width="140.000000pt" height="140.000000pt" viewBox="0 0 140.000000 140.000000"
 preserveAspectRatio="xMidYMid meet">
<metadata>
Created by potrace 1.11, written by Peter Selinger 2001-2013
</metadata>
<g transform="translate(0.000000,140.000000) scale(0.100000,-0.100000)"
fill="#000000" stroke="none">
<path d="M659 1336 c-119 -25 -177 -108 -165 -236 4 -48 3 -70 -5 -70 -6 0 -9
-6 -6 -12 2 -7 11 -12 21 -10 9 2 16 -3 16 -11 0 -7 6 -14 13 -15 6 -1 28 -5
47 -10 28 -7 32 -11 17 -17 -10 -4 -33 -5 -52 -2 -27 5 -35 2 -35 -10 0 -12 7
-14 31 -9 17 3 42 6 54 6 16 0 26 9 35 30 14 35 26 38 35 10 11 -36 35 -50 78
-49 l42 1 -35 7 c-20 4 -41 11 -48 15 -14 9 -16 36 -2 36 6 0 10 -5 10 -11 0
-8 16 -10 50 -6 39 5 50 3 50 -8 0 -7 -6 -16 -12 -18 -10 -4 -9 -6 1 -6 8 -1
19 6 26 16 18 24 35 7 29 -30 -12 -69 -15 -77 -44 -92 -17 -9 -30 -22 -30 -30
0 -7 -5 -17 -11 -21 -8 -4 -9 0 -4 15 13 41 -1 57 -47 53 -35 -3 -41 -2 -30 9
6 7 12 19 12 26 0 11 -8 10 -37 -2 -25 -11 -40 -12 -47 -5 -14 14 -26 12 -26
-5 0 -8 -4 -15 -10 -15 -5 0 -10 6 -10 13 0 6 -9 -1 -20 -18 -17 -26 -20 -27
-26 -11 -6 15 -8 16 -15 4 -13 -23 8 -81 45 -124 25 -29 32 -44 25 -55 -12
-20 -11 -35 4 -51 27 -26 37 -54 25 -66 -9 -9 -8 -12 4 -12 9 0 18 7 22 15 3
8 1 15 -5 15 -31 0 128 97 197 121 39 14 119 171 96 189 -11 8 -7 59 6 72 7 7
12 18 12 26 0 7 5 10 10 7 11 -7 26 22 16 32 -3 3 -14 0 -23 -8 -15 -11 -16
-11 -5 1 8 9 12 46 12 105 0 86 -2 95 -30 133 -30 43 -111 92 -146 90 -11 -1
-28 1 -39 4 -11 4 -45 1 -76 -6z m-3 -127 c4 -8 26 -10 60 -6 66 7 121 -7 129
-33 3 -10 3 -35 -1 -55 -4 -25 -1 -42 10 -60 16 -24 16 -25 -7 -25 -13 0 -50
5 -81 12 -50 9 -62 9 -85 -5 -25 -15 -30 -15 -50 -1 -14 11 -38 15 -67 12
l-44 -3 0 40 c0 54 15 104 37 121 22 16 89 18 99 3z m44 -425 c0 -2 -19 -3
-42 -3 -39 1 -41 2 -13 8 28 7 55 4 55 -5z m38 -16 c-3 -29 -7 -33 -32 -33
-35 0 -46 20 -17 30 12 3 21 13 21 21 0 8 7 14 16 14 11 0 14 -8 12 -32z
m-122 -25 c-11 -12 -36 7 -36 29 l0 22 21 -23 c12 -12 19 -25 15 -28z m34 -23
c0 -5 -5 -10 -11 -10 -5 0 -7 5 -4 10 3 6 8 10 11 10 2 0 4 -4 4 -10z"/>
<path d="M926 756 c-3 -12 -29 -50 -58 -84 -81 -92 -112 -133 -158 -203 -73
-113 -157 -303 -175 -399 -3 -19 -9 -43 -11 -52 -5 -15 2 -18 43 -18 46 0 50
2 73 40 33 52 110 91 110 56 0 -8 5 -16 11 -18 22 -7 -9 -57 -43 -67 -23 -6
52 -9 244 -10 l277 -1 5 33 c22 154 24 190 16 282 -5 55 -14 113 -19 128 -14
35 -96 123 -168 179 -30 23 -73 68 -94 100 -22 32 -41 58 -43 58 -2 0 -6 -11
-10 -24z"/>
<path d="M511 587 c-64 -56 -123 -128 -133 -162 -6 -22 -17 -47 -24 -55 -6 -8
-15 -29 -19 -47 -3 -17 -13 -37 -21 -44 -8 -6 -14 -16 -14 -21 0 -6 -18 -37
-40 -70 -22 -33 -40 -63 -40 -67 0 -3 -15 -22 -33 -42 -17 -20 -41 -45 -51
-57 l-19 -22 170 0 171 0 -1 78 c0 81 6 122 29 212 19 71 65 171 76 164 5 -3
-3 15 -17 40 -18 32 -23 53 -19 75 7 34 6 36 -15 18z"/>
<path d="M656 584 c-8 -22 -8 -26 4 -19 6 3 24 -3 40 -15 38 -27 39 -12 2 23
-33 31 -38 33 -46 11z"/>
</g>
</svg>
